<mxfile host="Electron" agent="Mozilla/5.0 (Macintosh; Intel Mac OS X 10_15_7) AppleWebKit/537.36 (KHTML, like Gecko) draw.io/27.0.5 Chrome/134.0.6998.205 Electron/35.3.0 Safari/537.36" version="27.0.5" pages="5">
  <diagram name="create_order" id="W1Q4y8XJd1QiNLmvt7eU">
    <mxGraphModel dx="1245" dy="965" grid="1" gridSize="10" guides="1" tooltips="1" connect="1" arrows="1" fold="1" page="1" pageScale="1" pageWidth="850" pageHeight="1100" math="0" shadow="0">
      <root>
        <mxCell id="0" />
        <mxCell id="1" parent="0" />
        <mxCell id="0t_OwUgH3DUPoWp8YFiv-1" value="Create Order Sequence Diagram" style="text;html=1;strokeColor=none;fillColor=none;align=center;verticalAlign=middle;whiteSpace=wrap;rounded=0;fontSize=16;fontStyle=1;" vertex="1" parent="1">
          <mxGeometry x="540" y="110" width="300" height="30" as="geometry" />
        </mxCell>
        <mxCell id="0t_OwUgH3DUPoWp8YFiv-2" value="Client" style="shape=umlActor;verticalLabelPosition=bottom;verticalAlign=top;html=1;outlineConnect=0;" vertex="1" parent="1">
          <mxGeometry x="120" y="170" width="30" height="60" as="geometry" />
        </mxCell>
        <mxCell id="0t_OwUgH3DUPoWp8YFiv-3" value="PancakeService" style="rounded=1;whiteSpace=wrap;html=1;fillColor=#d5e8d4;strokeColor=#82b366;" vertex="1" parent="1">
          <mxGeometry x="240" y="180" width="120" height="40" as="geometry" />
        </mxCell>
        <mxCell id="0t_OwUgH3DUPoWp8YFiv-4" value="OrderFactory" style="rounded=1;whiteSpace=wrap;html=1;fillColor=#e1d5e7;strokeColor=#9673a6;" vertex="1" parent="1">
          <mxGeometry x="420" y="180" width="140" height="40" as="geometry" />
        </mxCell>
        <mxCell id="0t_OwUgH3DUPoWp8YFiv-5" value="OrderValidator" style="rounded=1;whiteSpace=wrap;html=1;fillColor=#d5e8d4;strokeColor=#82b366;" vertex="1" parent="1">
          <mxGeometry x="620" y="180" width="120" height="40" as="geometry" />
        </mxCell>
        <mxCell id="0t_OwUgH3DUPoWp8YFiv-6" value="OrderValidatorConfig" style="rounded=1;whiteSpace=wrap;html=1;fillColor=#d5e8d4;strokeColor=#82b366;" vertex="1" parent="1">
          <mxGeometry x="800" y="180" width="140" height="40" as="geometry" />
        </mxCell>
        <mxCell id="0t_OwUgH3DUPoWp8YFiv-7" value="OrderRepository" style="rounded=1;whiteSpace=wrap;html=1;fillColor=#e1d5e7;strokeColor=#9673a6;" vertex="1" parent="1">
          <mxGeometry x="1000" y="180" width="120" height="40" as="geometry" />
        </mxCell>
        <mxCell id="0t_OwUgH3DUPoWp8YFiv-8" value="OrderStateService" style="rounded=1;whiteSpace=wrap;html=1;fillColor=#e1d5e7;strokeColor=#9673a6;" vertex="1" parent="1">
          <mxGeometry x="1180" y="180" width="140" height="40" as="geometry" />
        </mxCell>
        <mxCell id="0t_OwUgH3DUPoWp8YFiv-9" value="" style="html=1;points=[];perimeter=orthogonalPerimeter;outlineConnect=0;targetShapes=umlLifeline;portConstraint=eastwest;" vertex="1" parent="1">
          <mxGeometry x="130" y="250" width="10" height="400" as="geometry" />
        </mxCell>
        <mxCell id="0t_OwUgH3DUPoWp8YFiv-10" value="" style="html=1;points=[];perimeter=orthogonalPerimeter;outlineConnect=0;targetShapes=umlLifeline;portConstraint=eastwest;" vertex="1" parent="1">
          <mxGeometry x="295" y="250" width="10" height="400" as="geometry" />
        </mxCell>
        <mxCell id="0t_OwUgH3DUPoWp8YFiv-11" value="" style="html=1;points=[];perimeter=orthogonalPerimeter;outlineConnect=0;targetShapes=umlLifeline;portConstraint=eastwest;" vertex="1" parent="1">
          <mxGeometry x="485" y="250" width="10" height="400" as="geometry" />
        </mxCell>
        <mxCell id="0t_OwUgH3DUPoWp8YFiv-12" value="" style="html=1;points=[];perimeter=orthogonalPerimeter;outlineConnect=0;targetShapes=umlLifeline;portConstraint=eastwest;" vertex="1" parent="1">
          <mxGeometry x="675" y="250" width="10" height="400" as="geometry" />
        </mxCell>
        <mxCell id="0t_OwUgH3DUPoWp8YFiv-13" value="" style="html=1;points=[];perimeter=orthogonalPerimeter;outlineConnect=0;targetShapes=umlLifeline;portConstraint=eastwest;" vertex="1" parent="1">
          <mxGeometry x="865" y="250" width="10" height="400" as="geometry" />
        </mxCell>
        <mxCell id="0t_OwUgH3DUPoWp8YFiv-14" value="" style="html=1;points=[];perimeter=orthogonalPerimeter;outlineConnect=0;targetShapes=umlLifeline;portConstraint=eastwest;" vertex="1" parent="1">
          <mxGeometry x="1055" y="250" width="10" height="400" as="geometry" />
        </mxCell>
        <mxCell id="0t_OwUgH3DUPoWp8YFiv-15" value="" style="html=1;points=[];perimeter=orthogonalPerimeter;outlineConnect=0;targetShapes=umlLifeline;portConstraint=eastwest;" vertex="1" parent="1">
          <mxGeometry x="1245" y="250" width="10" height="400" as="geometry" />
        </mxCell>
        <mxCell id="0t_OwUgH3DUPoWp8YFiv-16" value="1: createOrder(building, room)" style="html=1;verticalAlign=bottom;endArrow=block;curved=0;rounded=0;" edge="1" parent="1">
          <mxGeometry relative="1" as="geometry">
            <mxPoint x="140" y="270" as="sourcePoint" />
            <mxPoint x="295" y="270" as="targetPoint" />
          </mxGeometry>
        </mxCell>
        <mxCell id="0t_OwUgH3DUPoWp8YFiv-17" value="2: createOrder(building, room)" style="html=1;verticalAlign=bottom;endArrow=block;curved=0;rounded=0;" edge="1" parent="1">
          <mxGeometry relative="1" as="geometry">
            <mxPoint x="305" y="290" as="sourcePoint" />
            <mxPoint x="485" y="290" as="targetPoint" />
          </mxGeometry>
        </mxCell>
        <mxCell id="0t_OwUgH3DUPoWp8YFiv-18" value="3: validate(building, room)" style="html=1;verticalAlign=bottom;endArrow=block;curved=0;rounded=0;" edge="1" parent="1">
          <mxGeometry relative="1" as="geometry">
            <mxPoint x="495" y="310" as="sourcePoint" />
            <mxPoint x="675" y="310" as="targetPoint" />
          </mxGeometry>
        </mxCell>
        <mxCell id="0t_OwUgH3DUPoWp8YFiv-19" value="4: getMinBuildingNumber(), etc." style="html=1;verticalAlign=bottom;endArrow=block;curved=0;rounded=0;" edge="1" parent="1">
          <mxGeometry relative="1" as="geometry">
            <mxPoint x="685" y="330" as="sourcePoint" />
            <mxPoint x="865" y="330" as="targetPoint" />
          </mxGeometry>
        </mxCell>
        <mxCell id="0t_OwUgH3DUPoWp8YFiv-20" value="5: return validation ranges" style="html=1;verticalAlign=bottom;endArrow=open;dashed=1;endFill=0;curved=0;rounded=0;" edge="1" parent="1">
          <mxGeometry relative="1" as="geometry">
            <mxPoint x="865" y="350" as="sourcePoint" />
            <mxPoint x="685" y="350" as="targetPoint" />
          </mxGeometry>
        </mxCell>
        <mxCell id="0t_OwUgH3DUPoWp8YFiv-21" value="&amp;nbsp;[validation fails]" style="shape=umlFrame;whiteSpace=wrap;html=1;pointerEvents=0;" vertex="1" parent="1">
          <mxGeometry x="640" y="370" width="280" height="120" as="geometry" />
        </mxCell>
        <mxCell id="0t_OwUgH3DUPoWp8YFiv-22" value="6: throw ValidationException" style="html=1;verticalAlign=bottom;endArrow=block;curved=0;rounded=0;strokeColor=#ff0000;" edge="1" parent="1">
          <mxGeometry relative="1" as="geometry">
            <mxPoint x="675" y="410" as="sourcePoint" />
            <mxPoint x="495" y="410" as="targetPoint" />
          </mxGeometry>
        </mxCell>
        <mxCell id="0t_OwUgH3DUPoWp8YFiv-23" value="7: propagate exception" style="html=1;verticalAlign=bottom;endArrow=block;curved=0;rounded=0;strokeColor=#ff0000;" edge="1" parent="1">
          <mxGeometry relative="1" as="geometry">
            <mxPoint x="485" y="430" as="sourcePoint" />
            <mxPoint x="305" y="430" as="targetPoint" />
          </mxGeometry>
        </mxCell>
        <mxCell id="0t_OwUgH3DUPoWp8YFiv-24" value="8: propagate exception" style="html=1;verticalAlign=bottom;endArrow=block;curved=0;rounded=0;strokeColor=#ff0000;" edge="1" parent="1">
          <mxGeometry relative="1" as="geometry">
            <mxPoint x="295" y="450" as="sourcePoint" />
            <mxPoint x="140" y="450" as="targetPoint" />
          </mxGeometry>
        </mxCell>
        <mxCell id="0t_OwUgH3DUPoWp8YFiv-25" value="9: new Order(building, room)" style="html=1;verticalAlign=bottom;endArrow=block;curved=0;rounded=1;" edge="1" parent="1">
          <mxGeometry y="50" relative="1" as="geometry">
            <mxPoint x="495" y="510" as="sourcePoint" />
            <mxPoint x="495" y="530" as="targetPoint" />
            <Array as="points">
              <mxPoint x="540" y="520" />
            </Array>
            <mxPoint x="39" y="-49" as="offset" />
          </mxGeometry>
        </mxCell>
        <mxCell id="0t_OwUgH3DUPoWp8YFiv-26" value="10: return Order" style="html=1;verticalAlign=bottom;endArrow=open;dashed=1;endFill=0;curved=0;rounded=0;" edge="1" parent="1">
          <mxGeometry relative="1" as="geometry">
            <mxPoint x="485" y="550" as="sourcePoint" />
            <mxPoint x="305" y="550" as="targetPoint" />
          </mxGeometry>
        </mxCell>
        <mxCell id="0t_OwUgH3DUPoWp8YFiv-27" value="11: save(order)" style="html=1;verticalAlign=bottom;endArrow=block;curved=0;rounded=0;" edge="1" parent="1">
          <mxGeometry relative="1" as="geometry">
            <mxPoint x="305" y="570" as="sourcePoint" />
            <mxPoint x="1055" y="570" as="targetPoint" />
          </mxGeometry>
        </mxCell>
        <mxCell id="0t_OwUgH3DUPoWp8YFiv-28" value="12: update(orderId, CREATED)" style="html=1;verticalAlign=bottom;endArrow=block;curved=0;rounded=0;" edge="1" parent="1">
          <mxGeometry relative="1" as="geometry">
            <mxPoint x="305" y="590" as="sourcePoint" />
            <mxPoint x="1245" y="590" as="targetPoint" />
          </mxGeometry>
        </mxCell>
        <mxCell id="0t_OwUgH3DUPoWp8YFiv-29" value="13: return Order" style="html=1;verticalAlign=bottom;endArrow=open;dashed=1;endFill=0;curved=0;rounded=0;" edge="1" parent="1">
          <mxGeometry relative="1" as="geometry">
            <mxPoint x="295" y="610" as="sourcePoint" />
            <mxPoint x="140" y="610" as="targetPoint" />
          </mxGeometry>
        </mxCell>
      </root>
    </mxGraphModel>
  </diagram>
  <diagram id="Ghtet4dUWatV7q7vfm-m" name="add_pancake">
    <mxGraphModel dx="1183" dy="917" grid="1" gridSize="10" guides="1" tooltips="1" connect="1" arrows="1" fold="1" page="1" pageScale="1" pageWidth="850" pageHeight="1100" math="0" shadow="0">
      <root>
        <mxCell id="0" />
        <mxCell id="1" parent="0" />
        <mxCell id="GAjc7woLIi46JyafgGZd-1" value="Add Pancake to Order Sequence Diagram" style="text;html=1;strokeColor=none;fillColor=none;align=center;verticalAlign=middle;whiteSpace=wrap;rounded=0;fontSize=16;fontStyle=1;" vertex="1" parent="1">
          <mxGeometry x="500" y="40" width="350" height="30" as="geometry" />
        </mxCell>
        <mxCell id="GAjc7woLIi46JyafgGZd-2" value="Client" style="shape=umlActor;verticalLabelPosition=bottom;verticalAlign=top;html=1;outlineConnect=0;" vertex="1" parent="1">
          <mxGeometry x="50" y="100" width="30" height="60" as="geometry" />
        </mxCell>
        <mxCell id="GAjc7woLIi46JyafgGZd-3" value="PancakeService" style="rounded=1;whiteSpace=wrap;html=1;fillColor=#d5e8d4;strokeColor=#82b366;" vertex="1" parent="1">
          <mxGeometry x="150" y="110" width="120" height="40" as="geometry" />
        </mxCell>
        <mxCell id="GAjc7woLIi46JyafgGZd-4" value="OrderRepository" style="rounded=1;whiteSpace=wrap;html=1;fillColor=#e1d5e7;strokeColor=#9673a6;" vertex="1" parent="1">
          <mxGeometry x="330" y="110" width="120" height="40" as="geometry" />
        </mxCell>
        <mxCell id="GAjc7woLIi46JyafgGZd-5" value="PancakeFactory" style="rounded=1;whiteSpace=wrap;html=1;fillColor=#e1d5e7;strokeColor=#9673a6;" vertex="1" parent="1">
          <mxGeometry x="510" y="110" width="120" height="40" as="geometry" />
        </mxCell>
        <mxCell id="GAjc7woLIi46JyafgGZd-6" value="Pancake" style="rounded=1;whiteSpace=wrap;html=1;fillColor=#d5e8d4;strokeColor=#82b366;" vertex="1" parent="1">
          <mxGeometry x="690" y="110" width="80" height="40" as="geometry" />
        </mxCell>
        <mxCell id="GAjc7woLIi46JyafgGZd-7" value="PancakeRepository" style="rounded=1;whiteSpace=wrap;html=1;fillColor=#e1d5e7;strokeColor=#9673a6;" vertex="1" parent="1">
          <mxGeometry x="830" y="110" width="140" height="40" as="geometry" />
        </mxCell>
        <mxCell id="GAjc7woLIi46JyafgGZd-8" value="OrderLogger" style="rounded=1;whiteSpace=wrap;html=1;fillColor=#e1d5e7;strokeColor=#9673a6;" vertex="1" parent="1">
          <mxGeometry x="1030" y="110" width="120" height="40" as="geometry" />
        </mxCell>
        <mxCell id="GAjc7woLIi46JyafgGZd-9" value="" style="html=1;points=[];perimeter=orthogonalPerimeter;outlineConnect=0;targetShapes=umlLifeline;portConstraint=eastwest;" vertex="1" parent="1">
          <mxGeometry x="60" y="180" width="10" height="500" as="geometry" />
        </mxCell>
        <mxCell id="GAjc7woLIi46JyafgGZd-10" value="" style="html=1;points=[];perimeter=orthogonalPerimeter;outlineConnect=0;targetShapes=umlLifeline;portConstraint=eastwest;" vertex="1" parent="1">
          <mxGeometry x="205" y="180" width="10" height="500" as="geometry" />
        </mxCell>
        <mxCell id="GAjc7woLIi46JyafgGZd-11" value="" style="html=1;points=[];perimeter=orthogonalPerimeter;outlineConnect=0;targetShapes=umlLifeline;portConstraint=eastwest;" vertex="1" parent="1">
          <mxGeometry x="385" y="180" width="10" height="500" as="geometry" />
        </mxCell>
        <mxCell id="GAjc7woLIi46JyafgGZd-12" value="" style="html=1;points=[];perimeter=orthogonalPerimeter;outlineConnect=0;targetShapes=umlLifeline;portConstraint=eastwest;" vertex="1" parent="1">
          <mxGeometry x="565" y="180" width="10" height="500" as="geometry" />
        </mxCell>
        <mxCell id="GAjc7woLIi46JyafgGZd-13" value="" style="html=1;points=[];perimeter=orthogonalPerimeter;outlineConnect=0;targetShapes=umlLifeline;portConstraint=eastwest;" vertex="1" parent="1">
          <mxGeometry x="725" y="180" width="10" height="500" as="geometry" />
        </mxCell>
        <mxCell id="GAjc7woLIi46JyafgGZd-14" value="" style="html=1;points=[];perimeter=orthogonalPerimeter;outlineConnect=0;targetShapes=umlLifeline;portConstraint=eastwest;" vertex="1" parent="1">
          <mxGeometry x="895" y="180" width="10" height="500" as="geometry" />
        </mxCell>
        <mxCell id="GAjc7woLIi46JyafgGZd-15" value="" style="html=1;points=[];perimeter=orthogonalPerimeter;outlineConnect=0;targetShapes=umlLifeline;portConstraint=eastwest;" vertex="1" parent="1">
          <mxGeometry x="1085" y="180" width="10" height="500" as="geometry" />
        </mxCell>
        <mxCell id="GAjc7woLIi46JyafgGZd-16" value="1: addPancake(orderId, pancakeRecipe, count)" style="html=1;verticalAlign=bottom;endArrow=block;curved=0;rounded=0;" edge="1" parent="1">
          <mxGeometry relative="1" as="geometry">
            <mxPoint x="70" y="200" as="sourcePoint" />
            <mxPoint x="205" y="200" as="targetPoint" />
          </mxGeometry>
        </mxCell>
        <mxCell id="GAjc7woLIi46JyafgGZd-17" value="2: getOrderLock(orderId)" style="html=1;verticalAlign=bottom;endArrow=block;curved=0;rounded=1;" edge="1" parent="1">
          <mxGeometry relative="1" as="geometry">
            <mxPoint x="215" y="220" as="sourcePoint" />
            <mxPoint x="215" y="240" as="targetPoint" />
            <Array as="points">
              <mxPoint x="260" y="230" />
            </Array>
          </mxGeometry>
        </mxCell>
        <mxCell id="GAjc7woLIi46JyafgGZd-18" value="3: lock.lock()" style="html=1;verticalAlign=bottom;endArrow=block;curved=0;rounded=1;" edge="1" parent="1">
          <mxGeometry relative="1" as="geometry">
            <mxPoint x="215" y="260" as="sourcePoint" />
            <mxPoint x="215" y="280" as="targetPoint" />
            <Array as="points">
              <mxPoint x="260" y="270" />
            </Array>
          </mxGeometry>
        </mxCell>
        <mxCell id="GAjc7woLIi46JyafgGZd-19" value="loop [for each count]" style="shape=umlFrame;whiteSpace=wrap;html=1;pointerEvents=0;" vertex="1" parent="1">
          <mxGeometry x="180" y="300" width="980" height="320" as="geometry" />
        </mxCell>
        <mxCell id="GAjc7woLIi46JyafgGZd-20" value="4: findById(orderId)" style="html=1;verticalAlign=bottom;endArrow=block;curved=0;rounded=0;" edge="1" parent="1">
          <mxGeometry relative="1" as="geometry">
            <mxPoint x="215" y="340" as="sourcePoint" />
            <mxPoint x="385" y="340" as="targetPoint" />
          </mxGeometry>
        </mxCell>
        <mxCell id="GAjc7woLIi46JyafgGZd-21" value="5: return Optional[Order]" style="html=1;verticalAlign=bottom;endArrow=open;dashed=1;endFill=0;curved=0;rounded=0;" edge="1" parent="1">
          <mxGeometry relative="1" as="geometry">
            <mxPoint x="385" y="360" as="sourcePoint" />
            <mxPoint x="215" y="360" as="targetPoint" />
          </mxGeometry>
        </mxCell>
        <mxCell id="GAjc7woLIi46JyafgGZd-22" value="[order not found]" style="shape=umlFrame;whiteSpace=wrap;html=1;pointerEvents=0;" vertex="1" parent="1">
          <mxGeometry x="200" y="380" width="400" height="80" as="geometry" />
        </mxCell>
        <mxCell id="GAjc7woLIi46JyafgGZd-23" value="6: throw OrderNotFoundException" style="html=1;verticalAlign=bottom;endArrow=block;curved=0;rounded=0;strokeColor=#ff0000;" edge="1" parent="1">
          <mxGeometry relative="1" as="geometry">
            <mxPoint x="215" y="420" as="sourcePoint" />
            <mxPoint x="70" y="420" as="targetPoint" />
          </mxGeometry>
        </mxCell>
        <mxCell id="GAjc7woLIi46JyafgGZd-24" value="7: createRecipe(ingredients)" style="html=1;verticalAlign=bottom;endArrow=block;curved=0;rounded=0;" edge="1" parent="1">
          <mxGeometry relative="1" as="geometry">
            <mxPoint x="215" y="480" as="sourcePoint" />
            <mxPoint x="565" y="480" as="targetPoint" />
          </mxGeometry>
        </mxCell>
        <mxCell id="GAjc7woLIi46JyafgGZd-25" value="8: new Pancake.Builder().withIngredients().build()" style="html=1;verticalAlign=bottom;endArrow=block;curved=0;rounded=0;" edge="1" parent="1">
          <mxGeometry relative="1" as="geometry">
            <mxPoint x="575" y="500" as="sourcePoint" />
            <mxPoint x="725" y="500" as="targetPoint" />
          </mxGeometry>
        </mxCell>
        <mxCell id="GAjc7woLIi46JyafgGZd-26" value="9: return Pancake" style="html=1;verticalAlign=bottom;endArrow=open;dashed=1;endFill=0;curved=0;rounded=0;" edge="1" parent="1">
          <mxGeometry relative="1" as="geometry">
            <mxPoint x="725" y="520" as="sourcePoint" />
            <mxPoint x="575" y="520" as="targetPoint" />
          </mxGeometry>
        </mxCell>
        <mxCell id="GAjc7woLIi46JyafgGZd-27" value="10: return PancakeRecipe" style="html=1;verticalAlign=bottom;endArrow=open;dashed=1;endFill=0;curved=0;rounded=0;" edge="1" parent="1">
          <mxGeometry relative="1" as="geometry">
            <mxPoint x="565" y="540" as="sourcePoint" />
            <mxPoint x="215" y="540" as="targetPoint" />
          </mxGeometry>
        </mxCell>
        <mxCell id="GAjc7woLIi46JyafgGZd-28" value="11: addPancake(orderId, pancakeRecipe)" style="html=1;verticalAlign=bottom;endArrow=block;curved=0;rounded=0;" edge="1" parent="1">
          <mxGeometry relative="1" as="geometry">
            <mxPoint x="215" y="560" as="sourcePoint" />
            <mxPoint x="895" y="560" as="targetPoint" />
          </mxGeometry>
        </mxCell>
        <mxCell id="GAjc7woLIi46JyafgGZd-29" value="12: return pancakeCount" style="html=1;verticalAlign=bottom;endArrow=open;dashed=1;endFill=0;curved=0;rounded=0;" edge="1" parent="1">
          <mxGeometry relative="1" as="geometry">
            <mxPoint x="895" y="580" as="sourcePoint" />
            <mxPoint x="215" y="580" as="targetPoint" />
          </mxGeometry>
        </mxCell>
        <mxCell id="GAjc7woLIi46JyafgGZd-30" value="13: logAddPancake(order, description, pancakeCount)" style="html=1;verticalAlign=bottom;endArrow=block;curved=0;rounded=0;" edge="1" parent="1">
          <mxGeometry relative="1" as="geometry">
            <mxPoint x="215" y="600" as="sourcePoint" />
            <mxPoint x="1085" y="600" as="targetPoint" />
          </mxGeometry>
        </mxCell>
        <mxCell id="GAjc7woLIi46JyafgGZd-31" value="14: lock.unlock()" style="html=1;verticalAlign=bottom;endArrow=block;curved=0;rounded=1;" edge="1" parent="1">
          <mxGeometry relative="1" as="geometry">
            <mxPoint x="215" y="640" as="sourcePoint" />
            <mxPoint x="215" y="660" as="targetPoint" />
            <Array as="points">
              <mxPoint x="260" y="650" />
            </Array>
          </mxGeometry>
        </mxCell>
      </root>
    </mxGraphModel>
  </diagram>
  <diagram id="djw72c1OOV429xzi0eU4" name="complete_deliver">
    <mxGraphModel dx="1183" dy="917" grid="1" gridSize="10" guides="1" tooltips="1" connect="1" arrows="1" fold="1" page="1" pageScale="1" pageWidth="850" pageHeight="1100" math="0" shadow="0">
      <root>
        <mxCell id="0" />
        <mxCell id="1" parent="0" />
        <mxCell id="KuCtLQeHCjxOza_GCnaF-1" value="Complete and Deliver Order Sequence Diagram" style="text;html=1;strokeColor=none;fillColor=none;align=center;verticalAlign=middle;whiteSpace=wrap;rounded=0;fontSize=16;fontStyle=1;" vertex="1" parent="1">
          <mxGeometry x="450" y="40" width="400" height="30" as="geometry" />
        </mxCell>
        <mxCell id="KuCtLQeHCjxOza_GCnaF-2" value="Client" style="shape=umlActor;verticalLabelPosition=bottom;verticalAlign=top;html=1;outlineConnect=0;" vertex="1" parent="1">
          <mxGeometry x="50" y="100" width="30" height="60" as="geometry" />
        </mxCell>
        <mxCell id="KuCtLQeHCjxOza_GCnaF-3" value="PancakeService" style="rounded=1;whiteSpace=wrap;html=1;fillColor=#d5e8d4;strokeColor=#82b366;" vertex="1" parent="1">
          <mxGeometry x="150" y="110" width="120" height="40" as="geometry" />
        </mxCell>
        <mxCell id="KuCtLQeHCjxOza_GCnaF-4" value="OrderStateService" style="rounded=1;whiteSpace=wrap;html=1;fillColor=#e1d5e7;strokeColor=#9673a6;" vertex="1" parent="1">
          <mxGeometry x="330" y="110" width="140" height="40" as="geometry" />
        </mxCell>
        <mxCell id="KuCtLQeHCjxOza_GCnaF-5" value="OrderRepository" style="rounded=1;whiteSpace=wrap;html=1;fillColor=#e1d5e7;strokeColor=#9673a6;" vertex="1" parent="1">
          <mxGeometry x="530" y="110" width="120" height="40" as="geometry" />
        </mxCell>
        <mxCell id="KuCtLQeHCjxOza_GCnaF-6" value="PancakeRepository" style="rounded=1;whiteSpace=wrap;html=1;fillColor=#e1d5e7;strokeColor=#9673a6;" vertex="1" parent="1">
          <mxGeometry x="710" y="110" width="140" height="40" as="geometry" />
        </mxCell>
        <mxCell id="KuCtLQeHCjxOza_GCnaF-7" value="OrderLogger" style="rounded=1;whiteSpace=wrap;html=1;fillColor=#e1d5e7;strokeColor=#9673a6;" vertex="1" parent="1">
          <mxGeometry x="910" y="110" width="120" height="40" as="geometry" />
        </mxCell>
        <mxCell id="KuCtLQeHCjxOza_GCnaF-8" value="" style="html=1;points=[];perimeter=orthogonalPerimeter;outlineConnect=0;targetShapes=umlLifeline;portConstraint=eastwest;" vertex="1" parent="1">
          <mxGeometry x="60" y="180" width="10" height="700" as="geometry" />
        </mxCell>
        <mxCell id="KuCtLQeHCjxOza_GCnaF-9" value="" style="html=1;points=[];perimeter=orthogonalPerimeter;outlineConnect=0;targetShapes=umlLifeline;portConstraint=eastwest;" vertex="1" parent="1">
          <mxGeometry x="205" y="180" width="10" height="700" as="geometry" />
        </mxCell>
        <mxCell id="KuCtLQeHCjxOza_GCnaF-10" value="" style="html=1;points=[];perimeter=orthogonalPerimeter;outlineConnect=0;targetShapes=umlLifeline;portConstraint=eastwest;" vertex="1" parent="1">
          <mxGeometry x="395" y="180" width="10" height="700" as="geometry" />
        </mxCell>
        <mxCell id="KuCtLQeHCjxOza_GCnaF-11" value="" style="html=1;points=[];perimeter=orthogonalPerimeter;outlineConnect=0;targetShapes=umlLifeline;portConstraint=eastwest;" vertex="1" parent="1">
          <mxGeometry x="585" y="180" width="10" height="700" as="geometry" />
        </mxCell>
        <mxCell id="KuCtLQeHCjxOza_GCnaF-12" value="" style="html=1;points=[];perimeter=orthogonalPerimeter;outlineConnect=0;targetShapes=umlLifeline;portConstraint=eastwest;" vertex="1" parent="1">
          <mxGeometry x="775" y="180" width="10" height="700" as="geometry" />
        </mxCell>
        <mxCell id="KuCtLQeHCjxOza_GCnaF-13" value="" style="html=1;points=[];perimeter=orthogonalPerimeter;outlineConnect=0;targetShapes=umlLifeline;portConstraint=eastwest;" vertex="1" parent="1">
          <mxGeometry x="965" y="180" width="10" height="700" as="geometry" />
        </mxCell>
        <mxCell id="KuCtLQeHCjxOza_GCnaF-14" value="1: completeOrder(orderId)" style="html=1;verticalAlign=bottom;endArrow=block;curved=0;rounded=0;" edge="1" parent="1">
          <mxGeometry relative="1" as="geometry">
            <mxPoint x="70" y="200" as="sourcePoint" />
            <mxPoint x="205" y="200" as="targetPoint" />
          </mxGeometry>
        </mxCell>
        <mxCell id="KuCtLQeHCjxOza_GCnaF-15" value="2: update(orderId, COMPLETED)" style="html=1;verticalAlign=bottom;endArrow=block;curved=0;rounded=0;" edge="1" parent="1">
          <mxGeometry relative="1" as="geometry">
            <mxPoint x="215" y="220" as="sourcePoint" />
            <mxPoint x="395" y="220" as="targetPoint" />
          </mxGeometry>
        </mxCell>
        <mxCell id="KuCtLQeHCjxOza_GCnaF-16" value="3: prepareOrder(orderId)" style="html=1;verticalAlign=bottom;endArrow=block;curved=0;rounded=0;" edge="1" parent="1">
          <mxGeometry relative="1" as="geometry">
            <mxPoint x="70" y="260" as="sourcePoint" />
            <mxPoint x="205" y="260" as="targetPoint" />
          </mxGeometry>
        </mxCell>
        <mxCell id="KuCtLQeHCjxOza_GCnaF-17" value="4: update(orderId, PREPARED)" style="html=1;verticalAlign=bottom;endArrow=block;curved=0;rounded=0;" edge="1" parent="1">
          <mxGeometry relative="1" as="geometry">
            <mxPoint x="215" y="280" as="sourcePoint" />
            <mxPoint x="395" y="280" as="targetPoint" />
          </mxGeometry>
        </mxCell>
        <mxCell id="KuCtLQeHCjxOza_GCnaF-18" value="Deliver Order Process" style="shape=note;whiteSpace=wrap;html=1;backgroundOutline=1;darkOpacity=0.05;fillColor=#dae8fc;strokeColor=#6c8ebf;" vertex="1" parent="1">
          <mxGeometry x="70" y="320" width="120" height="40" as="geometry" />
        </mxCell>
        <mxCell id="KuCtLQeHCjxOza_GCnaF-19" value="5: deliverOrder(orderId)" style="html=1;verticalAlign=bottom;endArrow=block;curved=0;rounded=0;" edge="1" parent="1">
          <mxGeometry relative="1" as="geometry">
            <mxPoint x="70" y="380" as="sourcePoint" />
            <mxPoint x="205" y="380" as="targetPoint" />
          </mxGeometry>
        </mxCell>
        <mxCell id="KuCtLQeHCjxOza_GCnaF-20" value="6: getOrderLock(orderId)" style="html=1;verticalAlign=bottom;endArrow=block;curved=0;rounded=1;" edge="1" parent="1">
          <mxGeometry relative="1" as="geometry">
            <mxPoint x="215" y="400" as="sourcePoint" />
            <mxPoint x="215" y="420" as="targetPoint" />
            <Array as="points">
              <mxPoint x="260" y="410" />
            </Array>
          </mxGeometry>
        </mxCell>
        <mxCell id="KuCtLQeHCjxOza_GCnaF-21" value="7: lock.lock()" style="html=1;verticalAlign=bottom;endArrow=block;curved=0;rounded=1;" edge="1" parent="1">
          <mxGeometry relative="1" as="geometry">
            <mxPoint x="215" y="440" as="sourcePoint" />
            <mxPoint x="215" y="460" as="targetPoint" />
            <Array as="points">
              <mxPoint x="260" y="450" />
            </Array>
          </mxGeometry>
        </mxCell>
        <mxCell id="KuCtLQeHCjxOza_GCnaF-22" value="8: get(orderId)" style="html=1;verticalAlign=bottom;endArrow=block;curved=0;rounded=0;" edge="1" parent="1">
          <mxGeometry relative="1" as="geometry">
            <mxPoint x="215" y="480" as="sourcePoint" />
            <mxPoint x="395" y="480" as="targetPoint" />
          </mxGeometry>
        </mxCell>
        <mxCell id="KuCtLQeHCjxOza_GCnaF-23" value="9: return OrderState" style="html=1;verticalAlign=bottom;endArrow=open;dashed=1;endFill=0;curved=0;rounded=0;" edge="1" parent="1">
          <mxGeometry relative="1" as="geometry">
            <mxPoint x="395" y="500" as="sourcePoint" />
            <mxPoint x="215" y="500" as="targetPoint" />
          </mxGeometry>
        </mxCell>
        <mxCell id="KuCtLQeHCjxOza_GCnaF-24" value="alt [state != PREPARED]" style="shape=umlFrame;whiteSpace=wrap;html=1;pointerEvents=0;" vertex="1" parent="1">
          <mxGeometry x="190" y="520" width="400" height="80" as="geometry" />
        </mxCell>
        <mxCell id="KuCtLQeHCjxOza_GCnaF-25" value="10: return null" style="html=1;verticalAlign=bottom;endArrow=open;dashed=1;endFill=0;curved=0;rounded=0;strokeColor=#ff0000;" edge="1" parent="1">
          <mxGeometry relative="1" as="geometry">
            <mxPoint x="205" y="560" as="sourcePoint" />
            <mxPoint x="70" y="560" as="targetPoint" />
          </mxGeometry>
        </mxCell>
        <mxCell id="KuCtLQeHCjxOza_GCnaF-26" value="11: findById(orderId)" style="html=1;verticalAlign=bottom;endArrow=block;curved=0;rounded=0;" edge="1" parent="1">
          <mxGeometry relative="1" as="geometry">
            <mxPoint x="215" y="620" as="sourcePoint" />
            <mxPoint x="585" y="620" as="targetPoint" />
          </mxGeometry>
        </mxCell>
        <mxCell id="KuCtLQeHCjxOza_GCnaF-27" value="12: return Order" style="html=1;verticalAlign=bottom;endArrow=open;dashed=1;endFill=0;curved=0;rounded=0;" edge="1" parent="1">
          <mxGeometry relative="1" as="geometry">
            <mxPoint x="585" y="640" as="sourcePoint" />
            <mxPoint x="215" y="640" as="targetPoint" />
          </mxGeometry>
        </mxCell>
        <mxCell id="KuCtLQeHCjxOza_GCnaF-28" value="13: viewOrder(orderId)" style="html=1;verticalAlign=bottom;endArrow=block;curved=0;rounded=0;" edge="1" parent="1">
          <mxGeometry relative="1" as="geometry">
            <mxPoint x="215" y="660" as="sourcePoint" />
            <mxPoint x="775" y="660" as="targetPoint" />
          </mxGeometry>
        </mxCell>
        <mxCell id="KuCtLQeHCjxOza_GCnaF-29" value="14: return List[String] pancakes" style="html=1;verticalAlign=bottom;endArrow=open;dashed=1;endFill=0;curved=0;rounded=0;" edge="1" parent="1">
          <mxGeometry relative="1" as="geometry">
            <mxPoint x="775" y="680" as="sourcePoint" />
            <mxPoint x="215" y="680" as="targetPoint" />
          </mxGeometry>
        </mxCell>
        <mxCell id="KuCtLQeHCjxOza_GCnaF-30" value="15: getPancakesCount(orderId)" style="html=1;verticalAlign=bottom;endArrow=block;curved=0;rounded=0;" edge="1" parent="1">
          <mxGeometry relative="1" as="geometry">
            <mxPoint x="215" y="700" as="sourcePoint" />
            <mxPoint x="775" y="700" as="targetPoint" />
          </mxGeometry>
        </mxCell>
        <mxCell id="KuCtLQeHCjxOza_GCnaF-31" value="16: return count" style="html=1;verticalAlign=bottom;endArrow=open;dashed=1;endFill=0;curved=0;rounded=0;" edge="1" parent="1">
          <mxGeometry relative="1" as="geometry">
            <mxPoint x="775" y="720" as="sourcePoint" />
            <mxPoint x="215" y="720" as="targetPoint" />
          </mxGeometry>
        </mxCell>
        <mxCell id="KuCtLQeHCjxOza_GCnaF-32" value="17: logDeliverOrder(order, pancakesCount)" style="html=1;verticalAlign=bottom;endArrow=block;curved=0;rounded=0;" edge="1" parent="1">
          <mxGeometry relative="1" as="geometry">
            <mxPoint x="215" y="740" as="sourcePoint" />
            <mxPoint x="965" y="740" as="targetPoint" />
          </mxGeometry>
        </mxCell>
        <mxCell id="KuCtLQeHCjxOza_GCnaF-33" value="18: remove(orderId)" style="html=1;verticalAlign=bottom;endArrow=block;curved=0;rounded=0;" edge="1" parent="1">
          <mxGeometry relative="1" as="geometry">
            <mxPoint x="215" y="760" as="sourcePoint" />
            <mxPoint x="775" y="760" as="targetPoint" />
          </mxGeometry>
        </mxCell>
        <mxCell id="KuCtLQeHCjxOza_GCnaF-34" value="19: deleteById(orderId)" style="html=1;verticalAlign=bottom;endArrow=block;curved=0;rounded=0;" edge="1" parent="1">
          <mxGeometry relative="1" as="geometry">
            <mxPoint x="215" y="780" as="sourcePoint" />
            <mxPoint x="585" y="780" as="targetPoint" />
          </mxGeometry>
        </mxCell>
        <mxCell id="KuCtLQeHCjxOza_GCnaF-35" value="20: remove(orderId)" style="html=1;verticalAlign=bottom;endArrow=block;curved=0;rounded=0;" edge="1" parent="1">
          <mxGeometry relative="1" as="geometry">
            <mxPoint x="215" y="800" as="sourcePoint" />
            <mxPoint x="395" y="800" as="targetPoint" />
          </mxGeometry>
        </mxCell>
        <mxCell id="KuCtLQeHCjxOza_GCnaF-36" value="21: lock.unlock()" style="html=1;verticalAlign=bottom;endArrow=block;curved=0;rounded=1;" edge="1" parent="1">
          <mxGeometry relative="1" as="geometry">
            <mxPoint x="215" y="820" as="sourcePoint" />
            <mxPoint x="215" y="840" as="targetPoint" />
            <Array as="points">
              <mxPoint x="260" y="830" />
            </Array>
          </mxGeometry>
        </mxCell>
        <mxCell id="KuCtLQeHCjxOza_GCnaF-37" value="22: removeOrderLock(orderId)" style="html=1;verticalAlign=bottom;endArrow=block;curved=0;rounded=1;" edge="1" parent="1">
          <mxGeometry relative="1" as="geometry">
            <mxPoint x="215" y="860" as="sourcePoint" />
            <mxPoint x="215" y="880" as="targetPoint" />
            <Array as="points">
              <mxPoint x="280" y="870" />
            </Array>
          </mxGeometry>
        </mxCell>
        <mxCell id="KuCtLQeHCjxOza_GCnaF-38" value="23: return Object[]{order, pancakes}" style="html=1;verticalAlign=bottom;endArrow=open;dashed=1;endFill=0;curved=0;rounded=0;" edge="1" parent="1">
          <mxGeometry relative="1" as="geometry">
            <mxPoint x="205" y="880" as="sourcePoint" />
            <mxPoint x="70" y="880" as="targetPoint" />
          </mxGeometry>
        </mxCell>
      </root>
    </mxGraphModel>
  </diagram>
  <diagram id="e7_g44azD6MlBxJE1T9P" name="cancel_order">
    <mxGraphModel dx="1183" dy="917" grid="1" gridSize="10" guides="1" tooltips="1" connect="1" arrows="1" fold="1" page="1" pageScale="1" pageWidth="850" pageHeight="1100" math="0" shadow="0">
      <root>
        <mxCell id="0" />
        <mxCell id="1" parent="0" />
        <mxCell id="KZAfppOVnB-IiVpBUJtw-1" value="Cancel Order Sequence Diagram" style="text;html=1;strokeColor=none;fillColor=none;align=center;verticalAlign=middle;whiteSpace=wrap;rounded=0;fontSize=16;fontStyle=1;" vertex="1" parent="1">
          <mxGeometry x="500" y="40" width="300" height="30" as="geometry" />
        </mxCell>
        <mxCell id="KZAfppOVnB-IiVpBUJtw-2" value="Client" style="shape=umlActor;verticalLabelPosition=bottom;verticalAlign=top;html=1;outlineConnect=0;" vertex="1" parent="1">
          <mxGeometry x="80" y="100" width="30" height="60" as="geometry" />
        </mxCell>
        <mxCell id="KZAfppOVnB-IiVpBUJtw-3" value="PancakeService" style="rounded=1;whiteSpace=wrap;html=1;fillColor=#d5e8d4;strokeColor=#82b366;" vertex="1" parent="1">
          <mxGeometry x="200" y="110" width="120" height="40" as="geometry" />
        </mxCell>
        <mxCell id="KZAfppOVnB-IiVpBUJtw-4" value="OrderRepository" style="rounded=1;whiteSpace=wrap;html=1;fillColor=#e1d5e7;strokeColor=#9673a6;" vertex="1" parent="1">
          <mxGeometry x="380" y="110" width="120" height="40" as="geometry" />
        </mxCell>
        <mxCell id="KZAfppOVnB-IiVpBUJtw-5" value="PancakeRepository" style="rounded=1;whiteSpace=wrap;html=1;fillColor=#e1d5e7;strokeColor=#9673a6;" vertex="1" parent="1">
          <mxGeometry x="560" y="110" width="140" height="40" as="geometry" />
        </mxCell>
        <mxCell id="KZAfppOVnB-IiVpBUJtw-6" value="OrderLogger" style="rounded=1;whiteSpace=wrap;html=1;fillColor=#e1d5e7;strokeColor=#9673a6;" vertex="1" parent="1">
          <mxGeometry x="760" y="110" width="120" height="40" as="geometry" />
        </mxCell>
        <mxCell id="KZAfppOVnB-IiVpBUJtw-7" value="OrderStateService" style="rounded=1;whiteSpace=wrap;html=1;fillColor=#e1d5e7;strokeColor=#9673a6;" vertex="1" parent="1">
          <mxGeometry x="940" y="110" width="140" height="40" as="geometry" />
        </mxCell>
        <mxCell id="KZAfppOVnB-IiVpBUJtw-8" value="" style="html=1;points=[];perimeter=orthogonalPerimeter;outlineConnect=0;targetShapes=umlLifeline;portConstraint=eastwest;" vertex="1" parent="1">
          <mxGeometry x="90" y="180" width="10" height="400" as="geometry" />
        </mxCell>
        <mxCell id="KZAfppOVnB-IiVpBUJtw-9" value="" style="html=1;points=[];perimeter=orthogonalPerimeter;outlineConnect=0;targetShapes=umlLifeline;portConstraint=eastwest;" vertex="1" parent="1">
          <mxGeometry x="255" y="180" width="10" height="400" as="geometry" />
        </mxCell>
        <mxCell id="KZAfppOVnB-IiVpBUJtw-10" value="" style="html=1;points=[];perimeter=orthogonalPerimeter;outlineConnect=0;targetShapes=umlLifeline;portConstraint=eastwest;" vertex="1" parent="1">
          <mxGeometry x="435" y="180" width="10" height="400" as="geometry" />
        </mxCell>
        <mxCell id="KZAfppOVnB-IiVpBUJtw-11" value="" style="html=1;points=[];perimeter=orthogonalPerimeter;outlineConnect=0;targetShapes=umlLifeline;portConstraint=eastwest;" vertex="1" parent="1">
          <mxGeometry x="625" y="180" width="10" height="400" as="geometry" />
        </mxCell>
        <mxCell id="KZAfppOVnB-IiVpBUJtw-12" value="" style="html=1;points=[];perimeter=orthogonalPerimeter;outlineConnect=0;targetShapes=umlLifeline;portConstraint=eastwest;" vertex="1" parent="1">
          <mxGeometry x="815" y="180" width="10" height="400" as="geometry" />
        </mxCell>
        <mxCell id="KZAfppOVnB-IiVpBUJtw-13" value="" style="html=1;points=[];perimeter=orthogonalPerimeter;outlineConnect=0;targetShapes=umlLifeline;portConstraint=eastwest;" vertex="1" parent="1">
          <mxGeometry x="1005" y="180" width="10" height="400" as="geometry" />
        </mxCell>
        <mxCell id="KZAfppOVnB-IiVpBUJtw-14" value="1: cancelOrder(orderId)" style="html=1;verticalAlign=bottom;endArrow=block;curved=0;rounded=0;" edge="1" parent="1">
          <mxGeometry relative="1" as="geometry">
            <mxPoint x="100" y="200" as="sourcePoint" />
            <mxPoint x="255" y="200" as="targetPoint" />
          </mxGeometry>
        </mxCell>
        <mxCell id="KZAfppOVnB-IiVpBUJtw-15" value="2: getOrderLock(orderId)" style="html=1;verticalAlign=bottom;endArrow=block;curved=0;rounded=1;" edge="1" parent="1">
          <mxGeometry relative="1" as="geometry">
            <mxPoint x="265" y="220" as="sourcePoint" />
            <mxPoint x="265" y="240" as="targetPoint" />
            <Array as="points">
              <mxPoint x="310" y="230" />
            </Array>
          </mxGeometry>
        </mxCell>
        <mxCell id="KZAfppOVnB-IiVpBUJtw-16" value="3: lock.lock()" style="html=1;verticalAlign=bottom;endArrow=block;curved=0;rounded=1;" edge="1" parent="1">
          <mxGeometry relative="1" as="geometry">
            <mxPoint x="265" y="260" as="sourcePoint" />
            <mxPoint x="265" y="280" as="targetPoint" />
            <Array as="points">
              <mxPoint x="310" y="270" />
            </Array>
          </mxGeometry>
        </mxCell>
        <mxCell id="KZAfppOVnB-IiVpBUJtw-17" value="4: findById(orderId)" style="html=1;verticalAlign=bottom;endArrow=block;curved=0;rounded=0;" edge="1" parent="1">
          <mxGeometry relative="1" as="geometry">
            <mxPoint x="265" y="300" as="sourcePoint" />
            <mxPoint x="435" y="300" as="targetPoint" />
          </mxGeometry>
        </mxCell>
        <mxCell id="KZAfppOVnB-IiVpBUJtw-18" value="5: return Optional[Order]" style="html=1;verticalAlign=bottom;endArrow=open;dashed=1;endFill=0;curved=0;rounded=0;" edge="1" parent="1">
          <mxGeometry relative="1" as="geometry">
            <mxPoint x="435" y="320" as="sourcePoint" />
            <mxPoint x="265" y="320" as="targetPoint" />
          </mxGeometry>
        </mxCell>
        <mxCell id="KZAfppOVnB-IiVpBUJtw-19" value="alt [order not found]" style="shape=umlFrame;whiteSpace=wrap;html=1;pointerEvents=0;" vertex="1" parent="1">
          <mxGeometry x="240" y="340" width="400" height="80" as="geometry" />
        </mxCell>
        <mxCell id="KZAfppOVnB-IiVpBUJtw-20" value="6: throw OrderNotFoundException" style="html=1;verticalAlign=bottom;endArrow=block;curved=0;rounded=0;strokeColor=#ff0000;" edge="1" parent="1">
          <mxGeometry relative="1" as="geometry">
            <mxPoint x="255" y="380" as="sourcePoint" />
            <mxPoint x="100" y="380" as="targetPoint" />
          </mxGeometry>
        </mxCell>
        <mxCell id="KZAfppOVnB-IiVpBUJtw-21" value="7: getPancakesCount(orderId)" style="html=1;verticalAlign=bottom;endArrow=block;curved=0;rounded=0;" edge="1" parent="1">
          <mxGeometry relative="1" as="geometry">
            <mxPoint x="265" y="440" as="sourcePoint" />
            <mxPoint x="625" y="440" as="targetPoint" />
          </mxGeometry>
        </mxCell>
        <mxCell id="KZAfppOVnB-IiVpBUJtw-22" value="8: return count" style="html=1;verticalAlign=bottom;endArrow=open;dashed=1;endFill=0;curved=0;rounded=0;" edge="1" parent="1">
          <mxGeometry relative="1" as="geometry">
            <mxPoint x="625" y="460" as="sourcePoint" />
            <mxPoint x="265" y="460" as="targetPoint" />
          </mxGeometry>
        </mxCell>
        <mxCell id="KZAfppOVnB-IiVpBUJtw-23" value="9: logCancelOrder(order, pancakesCount)" style="html=1;verticalAlign=bottom;endArrow=block;curved=0;rounded=0;" edge="1" parent="1">
          <mxGeometry relative="1" as="geometry">
            <mxPoint x="265" y="480" as="sourcePoint" />
            <mxPoint x="815" y="480" as="targetPoint" />
          </mxGeometry>
        </mxCell>
        <mxCell id="KZAfppOVnB-IiVpBUJtw-24" value="10: remove(orderId)" style="html=1;verticalAlign=bottom;endArrow=block;curved=0;rounded=0;" edge="1" parent="1">
          <mxGeometry relative="1" as="geometry">
            <mxPoint x="265" y="500" as="sourcePoint" />
            <mxPoint x="625" y="500" as="targetPoint" />
          </mxGeometry>
        </mxCell>
        <mxCell id="KZAfppOVnB-IiVpBUJtw-25" value="11: deleteById(orderId)" style="html=1;verticalAlign=bottom;endArrow=block;curved=0;rounded=0;" edge="1" parent="1">
          <mxGeometry relative="1" as="geometry">
            <mxPoint x="265" y="520" as="sourcePoint" />
            <mxPoint x="435" y="520" as="targetPoint" />
          </mxGeometry>
        </mxCell>
        <mxCell id="KZAfppOVnB-IiVpBUJtw-26" value="12: remove(orderId)" style="html=1;verticalAlign=bottom;endArrow=block;curved=0;rounded=0;" edge="1" parent="1">
          <mxGeometry relative="1" as="geometry">
            <mxPoint x="265" y="540" as="sourcePoint" />
            <mxPoint x="1005" y="540" as="targetPoint" />
          </mxGeometry>
        </mxCell>
        <mxCell id="KZAfppOVnB-IiVpBUJtw-27" value="13: lock.unlock()" style="html=1;verticalAlign=bottom;endArrow=block;curved=0;rounded=1;" edge="1" parent="1">
          <mxGeometry relative="1" as="geometry">
            <mxPoint x="265" y="560" as="sourcePoint" />
            <mxPoint x="265" y="580" as="targetPoint" />
            <Array as="points">
              <mxPoint x="310" y="570" />
            </Array>
          </mxGeometry>
        </mxCell>
        <mxCell id="KZAfppOVnB-IiVpBUJtw-28" value="14: removeOrderLock(orderId)" style="html=1;verticalAlign=bottom;endArrow=block;curved=0;rounded=1;" edge="1" parent="1">
          <mxGeometry relative="1" as="geometry">
            <mxPoint x="265" y="580" as="sourcePoint" />
            <mxPoint x="265" y="600" as="targetPoint" />
            <Array as="points">
              <mxPoint x="330" y="590" />
            </Array>
          </mxGeometry>
        </mxCell>
        <mxCell id="KZAfppOVnB-IiVpBUJtw-29" value="" style="html=1;points=[];perimeter=orthogonalPerimeter;outlineConnect=0;targetShapes=umlLifeline;portConstraint=eastwest;" vertex="1" parent="1">
          <mxGeometry x="635" y="190" width="10" height="400" as="geometry" />
        </mxCell>
      </root>
    </mxGraphModel>
  </diagram>
  <diagram id="abSX2sd_uK2hd61SWhKv" name="exception_handling">
    <mxGraphModel dx="1183" dy="917" grid="1" gridSize="10" guides="1" tooltips="1" connect="1" arrows="1" fold="1" page="1" pageScale="1" pageWidth="850" pageHeight="1100" math="0" shadow="0">
      <root>
        <mxCell id="0" />
        <mxCell id="1" parent="0" />
        <mxCell id="W9kIe97LmSJ2MiZQ4tcT-1" value="Exception Handling Sequence Diagram" style="text;html=1;strokeColor=none;fillColor=none;align=center;verticalAlign=middle;whiteSpace=wrap;rounded=0;fontSize=16;fontStyle=1;" vertex="1" parent="1">
          <mxGeometry x="450" y="40" width="350" height="30" as="geometry" />
        </mxCell>
        <mxCell id="W9kIe97LmSJ2MiZQ4tcT-2" value="Client" style="shape=umlActor;verticalLabelPosition=bottom;verticalAlign=top;html=1;outlineConnect=0;" vertex="1" parent="1">
          <mxGeometry x="80" y="100" width="30" height="60" as="geometry" />
        </mxCell>
        <mxCell id="W9kIe97LmSJ2MiZQ4tcT-3" value="PancakeService" style="rounded=1;whiteSpace=wrap;html=1;fillColor=#d5e8d4;strokeColor=#82b366;" vertex="1" parent="1">
          <mxGeometry x="200" y="110" width="120" height="40" as="geometry" />
        </mxCell>
        <mxCell id="W9kIe97LmSJ2MiZQ4tcT-4" value="DefaultOrderFactory" style="rounded=1;whiteSpace=wrap;html=1;fillColor=#d5e8d4;strokeColor=#82b366;" vertex="1" parent="1">
          <mxGeometry x="380" y="110" width="140" height="40" as="geometry" />
        </mxCell>
        <mxCell id="W9kIe97LmSJ2MiZQ4tcT-5" value="OrderValidator" style="rounded=1;whiteSpace=wrap;html=1;fillColor=#d5e8d4;strokeColor=#82b366;" vertex="1" parent="1">
          <mxGeometry x="580" y="110" width="120" height="40" as="geometry" />
        </mxCell>
        <mxCell id="W9kIe97LmSJ2MiZQ4tcT-6" value="ValidationException" style="rounded=1;whiteSpace=wrap;html=1;fillColor=#f8cecc;strokeColor=#b85450;" vertex="1" parent="1">
          <mxGeometry x="760" y="110" width="140" height="40" as="geometry" />
        </mxCell>
        <mxCell id="W9kIe97LmSJ2MiZQ4tcT-7" value="OrderNotFoundException" style="rounded=1;whiteSpace=wrap;html=1;fillColor=#f8cecc;strokeColor=#b85450;" vertex="1" parent="1">
          <mxGeometry x="960" y="110" width="180" height="40" as="geometry" />
        </mxCell>
        <mxCell id="W9kIe97LmSJ2MiZQ4tcT-8" value="" style="html=1;points=[];perimeter=orthogonalPerimeter;outlineConnect=0;targetShapes=umlLifeline;portConstraint=eastwest;" vertex="1" parent="1">
          <mxGeometry x="90" y="180" width="10" height="500" as="geometry" />
        </mxCell>
        <mxCell id="W9kIe97LmSJ2MiZQ4tcT-9" value="" style="html=1;points=[];perimeter=orthogonalPerimeter;outlineConnect=0;targetShapes=umlLifeline;portConstraint=eastwest;" vertex="1" parent="1">
          <mxGeometry x="255" y="180" width="10" height="500" as="geometry" />
        </mxCell>
        <mxCell id="W9kIe97LmSJ2MiZQ4tcT-10" value="" style="html=1;points=[];perimeter=orthogonalPerimeter;outlineConnect=0;targetShapes=umlLifeline;portConstraint=eastwest;" vertex="1" parent="1">
          <mxGeometry x="445" y="180" width="10" height="500" as="geometry" />
        </mxCell>
        <mxCell id="W9kIe97LmSJ2MiZQ4tcT-11" value="" style="html=1;points=[];perimeter=orthogonalPerimeter;outlineConnect=0;targetShapes=umlLifeline;portConstraint=eastwest;" vertex="1" parent="1">
          <mxGeometry x="635" y="180" width="10" height="500" as="geometry" />
        </mxCell>
        <mxCell id="W9kIe97LmSJ2MiZQ4tcT-12" value="Scenario 1: Validation Exception" style="shape=note;whiteSpace=wrap;html=1;backgroundOutline=1;darkOpacity=0.05;fillColor=#fff2cc;strokeColor=#d6b656;" vertex="1" parent="1">
          <mxGeometry x="80" y="200" width="160" height="40" as="geometry" />
        </mxCell>
        <mxCell id="W9kIe97LmSJ2MiZQ4tcT-13" value="1: createOrder(999, 999)" style="html=1;verticalAlign=bottom;endArrow=block;curved=0;rounded=0;" edge="1" parent="1">
          <mxGeometry relative="1" as="geometry">
            <mxPoint x="100" y="260" as="sourcePoint" />
            <mxPoint x="255" y="260" as="targetPoint" />
          </mxGeometry>
        </mxCell>
        <mxCell id="W9kIe97LmSJ2MiZQ4tcT-14" value="2: createOrder(999, 999)" style="html=1;verticalAlign=bottom;endArrow=block;curved=0;rounded=0;" edge="1" parent="1">
          <mxGeometry relative="1" as="geometry">
            <mxPoint x="265" y="280" as="sourcePoint" />
            <mxPoint x="445" y="280" as="targetPoint" />
          </mxGeometry>
        </mxCell>
        <mxCell id="W9kIe97LmSJ2MiZQ4tcT-15" value="3: validate(999, 999)" style="html=1;verticalAlign=bottom;endArrow=block;curved=0;rounded=0;" edge="1" parent="1">
          <mxGeometry relative="1" as="geometry">
            <mxPoint x="455" y="300" as="sourcePoint" />
            <mxPoint x="635" y="300" as="targetPoint" />
          </mxGeometry>
        </mxCell>
        <mxCell id="W9kIe97LmSJ2MiZQ4tcT-16" value="4: new ValidationException" style="html=1;verticalAlign=bottom;endArrow=block;curved=0;rounded=0;strokeColor=#ff0000;" edge="1" parent="1">
          <mxGeometry relative="1" as="geometry">
            <mxPoint x="645" y="320" as="sourcePoint" />
            <mxPoint x="830" y="320" as="targetPoint" />
          </mxGeometry>
        </mxCell>
        <mxCell id="W9kIe97LmSJ2MiZQ4tcT-17" value="5: throw ValidationException" style="html=1;verticalAlign=bottom;endArrow=block;curved=0;rounded=0;strokeColor=#ff0000;" edge="1" parent="1">
          <mxGeometry relative="1" as="geometry">
            <mxPoint x="635" y="340" as="sourcePoint" />
            <mxPoint x="455" y="340" as="targetPoint" />
          </mxGeometry>
        </mxCell>
        <mxCell id="W9kIe97LmSJ2MiZQ4tcT-18" value="6: propagate ValidationException" style="html=1;verticalAlign=bottom;endArrow=block;curved=0;rounded=0;strokeColor=#ff0000;" edge="1" parent="1">
          <mxGeometry relative="1" as="geometry">
            <mxPoint x="445" y="360" as="sourcePoint" />
            <mxPoint x="265" y="360" as="targetPoint" />
          </mxGeometry>
        </mxCell>
        <mxCell id="W9kIe97LmSJ2MiZQ4tcT-19" value="7: propagate ValidationException" style="html=1;verticalAlign=bottom;endArrow=block;curved=0;rounded=0;strokeColor=#ff0000;" edge="1" parent="1">
          <mxGeometry relative="1" as="geometry">
            <mxPoint x="255" y="380" as="sourcePoint" />
            <mxPoint x="100" y="380" as="targetPoint" />
          </mxGeometry>
        </mxCell>
        <mxCell id="W9kIe97LmSJ2MiZQ4tcT-20" value="Scenario 2: Order Not Found Exception" style="shape=note;whiteSpace=wrap;html=1;backgroundOutline=1;darkOpacity=0.05;fillColor=#dae8fc;strokeColor=#6c8ebf;" vertex="1" parent="1">
          <mxGeometry x="80" y="420" width="200" height="40" as="geometry" />
        </mxCell>
        <mxCell id="W9kIe97LmSJ2MiZQ4tcT-21" value="8: addPancake(invalidOrderId, recipe, 1)" style="html=1;verticalAlign=bottom;endArrow=block;curved=0;rounded=0;" edge="1" parent="1">
          <mxGeometry relative="1" as="geometry">
            <mxPoint x="100" y="480" as="sourcePoint" />
            <mxPoint x="255" y="480" as="targetPoint" />
          </mxGeometry>
        </mxCell>
        <mxCell id="W9kIe97LmSJ2MiZQ4tcT-22" value="9: findById(invalidOrderId)" style="html=1;verticalAlign=bottom;endArrow=block;curved=0;rounded=0;" edge="1" parent="1">
          <mxGeometry relative="1" as="geometry">
            <mxPoint x="265" y="500" as="sourcePoint" />
            <mxPoint x="445" y="500" as="targetPoint" />
          </mxGeometry>
        </mxCell>
        <mxCell id="W9kIe97LmSJ2MiZQ4tcT-23" value="10: return Optional.empty()" style="html=1;verticalAlign=bottom;endArrow=open;dashed=1;endFill=0;curved=0;rounded=0;" edge="1" parent="1">
          <mxGeometry relative="1" as="geometry">
            <mxPoint x="445" y="520" as="sourcePoint" />
            <mxPoint x="265" y="520" as="targetPoint" />
          </mxGeometry>
        </mxCell>
        <mxCell id="W9kIe97LmSJ2MiZQ4tcT-24" value="11: new OrderNotFoundException(orderId)" style="html=1;verticalAlign=bottom;endArrow=block;curved=0;rounded=0;strokeColor=#ff0000;" edge="1" parent="1">
          <mxGeometry relative="1" as="geometry">
            <mxPoint x="265" y="540" as="sourcePoint" />
            <mxPoint x="1050" y="540" as="targetPoint" />
          </mxGeometry>
        </mxCell>
        <mxCell id="W9kIe97LmSJ2MiZQ4tcT-25" value="12: throw OrderNotFoundException" style="html=1;verticalAlign=bottom;endArrow=block;curved=0;rounded=0;strokeColor=#ff0000;" edge="1" parent="1">
          <mxGeometry relative="1" as="geometry">
            <mxPoint x="255" y="560" as="sourcePoint" />
            <mxPoint x="100" y="560" as="targetPoint" />
          </mxGeometry>
        </mxCell>
        <mxCell id="W9kIe97LmSJ2MiZQ4tcT-26" value="Note: ValidationException is thrown when building/room numbers are outside valid ranges" style="shape=note;whiteSpace=wrap;html=1;backgroundOutline=1;darkOpacity=0.05;fillColor=#fff2cc;strokeColor=#d6b656;" vertex="1" parent="1">
          <mxGeometry x="850" y="260" width="180" height="80" as="geometry" />
        </mxCell>
        <mxCell id="W9kIe97LmSJ2MiZQ4tcT-27" value="Note: OrderNotFoundException is thrown when trying to operate on non-existent orders" style="shape=note;whiteSpace=wrap;html=1;backgroundOutline=1;darkOpacity=0.05;fillColor=#dae8fc;strokeColor=#6c8ebf;" vertex="1" parent="1">
          <mxGeometry x="780" y="480" width="180" height="80" as="geometry" />
        </mxCell>
      </root>
    </mxGraphModel>
  </diagram>
</mxfile>
